Coordinates
version=1
nRows=28
nColumns=33
inDegrees=yes

Units are S.I. units (second, meters, Newtons, ...)
Angles are in degrees.

endheader
time	ground_thorax_rot_x	ground_thorax_rot_y	ground_thorax_rot_z	ground_thorax_tx	ground_thorax_ty	ground_thorax_tz	clav_prot_r	clav_elev_r	scapula_abduction_r	scapula_elevation_r	scapula_upward_rot_r	scapula_winging_r	shoulder_elv_r	plane_of_elev_r	axial_rot_r	elbow_flexion_r	pro_sup_r	wrist_flex_r	wrist_dev_r	clav_prot_l	clav_elev_l	scapula_abduction_l	scapula_elevation_l	scapula_upward_rot_l	scapula_winging_l	shoulder_elv_l	plane_of_elev_l	axial_rot_l	elbow_flexion_l	pro_sup_l	wrist_flex_l	wrist_dev_l	
3.7100	27.368277	25.820359	44.840436	-17.092960	834.945127	-49.432801	13.367607	34.491577	29.678618	45.000000	-45.000000	2074.113945	3311.894566	24.419423	180.000000	2879.391335	168.790876	16.022452	15.721111	-8.242087	-45.000000	-38.776724	45.000000	-45.000000	2981.350955	-3162.133669	28.020996	41.026129	2510.395831	43.411457	14.040795	-18.617660	
3.7200	27.180864	26.049604	45.223079	-13.722471	833.567744	-49.198566	13.394690	34.522917	29.762319	45.000000	-45.000000	2074.265070	3311.776559	24.419856	180.000000	2879.273072	168.649445	15.809158	15.785871	-8.366868	-45.000000	-38.656542	45.000000	-45.000000	2981.191975	-3162.253696	27.991516	40.998865	2510.345986	43.561215	13.982054	-18.402468	
3.7300	26.994340	26.288058	45.601594	-10.333959	832.132171	-48.946078	13.417239	34.555731	29.835536	45.000000	-45.000000	2074.423504	3311.657937	24.414088	180.000000	2879.167946	168.602091	15.602845	15.836347	-8.503497	-45.000000	-38.529084	45.000000	-45.000000	2981.031695	-3162.382798	27.953068	40.932323	2510.292118	43.707845	13.916071	-18.188040	
3.7400	26.806573	26.535801	45.976865	-6.926551	830.638068	-48.674610	13.420654	34.585471	29.890130	45.000000	-45.000000	2074.590790	3311.541798	24.405898	180.000000	2879.076228	168.648778	15.408002	15.870864	-8.638333	-45.000000	-38.398408	45.000000	-45.000000	2980.873494	-3162.524585	27.909083	40.819082	2510.235590	43.850609	13.846177	-17.976560	
3.7500	26.614884	26.793590	46.353938	-3.499898	829.085688	-48.383656	13.412244	34.613756	29.928726	45.000000	-45.000000	2074.771175	3311.428146	24.387470	180.000000	2879.000196	168.786178	15.226048	15.891422	-8.782861	-45.000000	-38.264121	45.000000	-45.000000	2980.714865	-3162.674499	27.854215	40.663110	2510.178290	43.990040	13.771666	-17.766678	
3.7600	26.423202	27.056400	46.725911	-0.054461	827.475973	-48.073107	13.381287	34.639061	29.949930	45.000000	-45.000000	2074.966282	3311.318238	24.362484	180.000000	2878.939933	169.010141	15.058588	15.903020	-8.926515	-45.000000	-38.125777	45.000000	-45.000000	2980.558335	-3162.837469	27.793587	40.461879	2510.124042	44.126036	13.696243	-17.563146	
3.7700	26.234139	27.322306	47.090276	3.408242	825.810613	-47.743318	13.337468	34.664223	29.959691	45.000000	-45.000000	2075.178606	3311.211255	24.324740	180.000000	2878.897760	169.312467	14.904498	15.910004	-9.079861	-45.000000	-37.980504	45.000000	-45.000000	2980.401152	-3163.010124	27.725082	40.220905	2510.075503	44.259515	13.619339	-17.365910	
3.7800	26.053309	27.585674	47.434638	6.885345	824.092153	-47.395201	13.259578	34.686128	29.957630	45.000000	-45.000000	2075.411549	3311.107059	24.272797	180.000000	2878.869553	169.684500	14.762292	15.923581	-9.224155	-45.000000	-37.830694	45.000000	-45.000000	2980.247657	-3163.197720	27.659483	39.934984	2510.036330	44.390290	13.548234	-17.183292	
3.7900	25.884435	27.845639	47.759701	10.372671	822.323990	-47.030233	13.176792	34.711312	29.953265	45.000000	-45.000000	2075.663811	3311.006498	24.203390	180.000000	2878.861897	170.112323	14.626668	15.943684	-9.381914	-45.000000	-37.670570	45.000000	-45.000000	2980.090917	-3163.394583	27.586346	39.613988	2510.006192	44.520331	13.477851	-17.010103	
3.8000	25.728969	28.101059	48.062767	13.864756	820.510507	-46.650607	13.100304	34.743561	29.945661	45.000000	-45.000000	2075.927334	3310.907663	24.126081	180.000000	2878.872636	170.580656	14.497342	15.963508	-9.557814	-45.000000	-37.497949	45.000000	-45.000000	2979.928708	-3163.599759	27.507133	39.260966	2509.983271	44.650704	13.406596	-16.843049	
3.8100	25.585639	28.355159	48.350275	17.355191	818.657203	-46.259317	13.056332	34.788081	29.932757	45.000000	-45.000000	2076.194618	3310.812339	24.051814	180.000000	2878.909427	171.077064	14.372511	15.967187	-9.767773	-45.000000	-37.310320	45.000000	-45.000000	2979.756250	-3163.807939	27.412447	38.884380	2509.964936	44.783047	13.327529	-16.672723	
3.8200	25.450067	28.609356	48.624242	20.836921	816.770852	-45.860316	13.034529	34.842243	29.906460	45.000000	-45.000000	2076.463097	3310.718837	23.985172	180.000000	2878.966149	171.591996	14.252563	15.950740	-10.000992	-45.000000	-37.112993	45.000000	-45.000000	2979.576653	-3164.017483	27.307135	38.481250	2509.950520	44.917309	13.242657	-16.498391	
3.8300	25.322296	28.865637	48.888745	24.302938	814.859322	-45.458398	13.048548	34.907015	29.870559	45.000000	-45.000000	2076.728735	3310.626614	23.926903	180.000000	2879.048482	172.119195	14.134988	15.909023	-10.265863	-45.000000	-36.903187	45.000000	-45.000000	2979.387653	-3164.225230	27.184620	38.061616	2509.938602	45.053654	13.148830	-16.314876	
3.8400	25.199842	29.123123	49.144545	27.746570	812.931288	-45.059041	13.084585	34.978015	29.827180	45.000000	-45.000000	2076.987318	3310.529252	23.876033	180.000000	2879.150191	172.652675	14.022024	15.842337	-10.550228	-45.000000	-36.685357	45.000000	-45.000000	2979.195288	-3164.430887	27.051890	37.626024	2509.928342	45.190817	13.049265	-16.123589	
3.8500	25.087017	29.379310	49.383591	31.161618	810.995656	-44.667976	13.130977	35.052376	29.777762	45.000000	-45.000000	2077.245678	3310.431753	23.827370	180.000000	2879.270724	173.193165	13.911123	15.759875	-10.845210	-45.000000	-36.460560	45.000000	-45.000000	2979.000241	-3164.635084	26.911771	37.177681	2509.921171	45.326163	12.948666	-15.928664	
3.8600	24.979710	29.633496	49.607723	34.542102	809.060975	-44.290782	13.164686	35.121673	29.722498	45.000000	-45.000000	2077.508732	3310.332917	23.772252	180.000000	2879.403096	173.737068	13.802413	15.672124	-11.130072	-45.000000	-36.237238	45.000000	-45.000000	2978.810634	-3164.838778	26.770681	36.708268	2509.917363	45.456813	12.852265	-15.735566	
3.8700	24.881642	29.884905	49.811457	37.881959	807.134890	-43.932371	13.187780	35.187527	29.664547	45.000000	-45.000000	2077.777668	3310.236244	23.710362	180.000000	2879.550538	174.284810	13.694762	15.583371	-11.406842	-45.000000	-36.013602	45.000000	-45.000000	2978.625487	-3165.043045	26.629139	36.223609	2509.915762	45.579441	12.762168	-15.546978	
3.8800	24.786887	30.135594	50.004237	41.174549	805.223998	-43.596711	13.206741	35.247758	29.601623	45.000000	-45.000000	2078.049927	3310.141489	23.645596	180.000000	2879.713474	174.831849	13.589922	15.487636	-11.675996	-45.000000	-35.793675	45.000000	-45.000000	2978.446385	-3165.244136	26.482895	35.722184	2509.913663	45.691471	12.674209	-15.359360	
3.8900	24.701107	30.383737	50.175086	44.412421	803.333989	-43.286667	13.219480	35.307166	29.535080	45.000000	-45.000000	2078.325646	3310.049504	23.578631	180.000000	2879.890826	175.381192	13.487925	15.390901	-11.941072	-45.000000	-35.575479	45.000000	-45.000000	2978.272387	-3165.443807	26.338885	35.214991	2509.912218	45.788032	12.592455	-15.178919	
3.9000	24.619711	30.631893	50.332031	47.587280	801.470046	-43.004121	13.225357	35.361247	29.461960	45.000000	-45.000000	2078.603412	3309.960687	23.509503	180.000000	2880.080854	175.930157	13.389483	15.292377	-12.196059	-45.000000	-35.363078	45.000000	-45.000000	2978.106532	-3165.640681	26.194744	34.700992	2509.908877	45.867207	12.515524	-15.005504	
3.9100	24.548753	30.878391	50.465285	50.690150	799.637336	-42.750179	13.223182	35.414985	29.386701	45.000000	-45.000000	2078.878834	3309.872365	23.438943	180.000000	2880.281633	176.480436	13.295891	15.195303	-12.444918	-45.000000	-35.154549	45.000000	-45.000000	2977.948907	-3165.836955	26.057656	34.192362	2509.903723	45.926007	12.446923	-14.844436	
3.9200	24.485084	31.123849	50.582615	53.711501	797.841405	-42.525492	13.214205	35.463518	29.304649	45.000000	-45.000000	2079.156183	3309.791110	23.366207	180.000000	2880.491466	177.027871	13.206431	15.096816	-12.682089	-45.000000	-34.953047	45.000000	-45.000000	2977.798966	-3166.029277	25.920397	33.683463	2509.896019	45.964061	12.383633	-14.693160	
3.9300	24.434603	31.365632	50.674913	56.641513	796.088231	-42.330522	13.197394	35.511904	29.216575	45.000000	-45.000000	2079.436150	3309.719598	23.292262	180.000000	2880.708102	177.570286	13.120917	14.999438	-12.910526	-45.000000	-34.757302	45.000000	-45.000000	2977.654929	-3166.218491	25.786656	33.179505	2509.887735	45.979446	12.327746	-14.554772	
3.9400	24.394737	31.604195	50.748151	59.470065	794.384046	-42.165718	13.174978	35.556528	29.119815	45.000000	-45.000000	2079.723573	3309.662349	23.213851	180.000000	2880.931404	178.099254	13.038127	14.899494	-13.126016	-45.000000	-34.569434	45.000000	-45.000000	2977.514604	-3166.400875	25.649903	32.674936	2509.878842	45.972026	12.276608	-14.426088	
3.9500	24.370715	31.837393	50.794714	62.186545	792.735052	-42.031598	13.148887	35.601278	29.019646	45.000000	-45.000000	2080.014067	3309.616014	23.132425	180.000000	2881.162862	178.607640	12.958275	14.795812	-13.332690	-45.000000	-34.388670	45.000000	-45.000000	2977.377829	-3166.576624	25.514187	32.178323	2509.869150	45.940334	12.231460	-14.307954	
3.9600	24.361267	32.065366	50.816189	64.779786	791.146994	-41.928714	13.121732	35.643061	28.910354	45.000000	-45.000000	2080.312052	3309.586591	23.047612	180.000000	2881.398779	179.084717	12.880623	14.684900	-13.527157	-45.000000	-34.216458	45.000000	-45.000000	2977.240161	-3166.742892	25.375911	31.687742	2509.860201	45.882962	12.189702	-14.197326	
3.9700	24.368703	32.287485	50.808217	67.238105	789.624941	-41.857620	13.094570	35.683517	28.798684	45.000000	-45.000000	2080.605614	3309.566290	22.964124	180.000000	2881.638864	179.522538	12.806015	14.569105	-13.712440	-45.000000	-34.052912	45.000000	-45.000000	2977.105818	-3166.901927	25.244759	31.216755	2509.850071	45.797045	12.154986	-14.096924	
3.9800	24.392774	32.504811	50.767242	69.549572	788.173256	-41.818801	13.069331	35.720892	28.669512	45.000000	-45.000000	2080.902272	3309.564012	22.881038	180.000000	2881.869202	179.913571	12.737351	14.440094	-13.885890	-45.000000	-33.896545	45.000000	-45.000000	2976.964350	-3167.051243	25.114353	30.764048	2509.844552	45.680233	12.120703	-14.002327	
